<?xml version="1.0" encoding="utf-8"?>
<!-- Generator: Adobe Illustrator 26.5.0, SVG Export Plug-In . SVG Version: 6.00 Build 0)  -->
<svg version="1.1" id="Слой_1" xmlns="http://www.w3.org/2000/svg" xmlns:xlink="http://www.w3.org/1999/xlink" x="0px" y="0px"
	 viewBox="0 0 120 32" style="enable-background:new 0 0 120 32;" xml:space="preserve">
<style type="text/css">
	.st0{fill:#FFFFFF;}
</style>
<path d="M2,0h28c1.1,0,2,0.9,2,2v28c0,1.1-0.9,2-2,2H2c-1.1,0-2-0.9-2-2V2C0,0.9,0.9,0,2,0z"/>
<g>
	<path class="st0" d="M8.4,17.6c0,0.1,0,0.1,0,0.2c0,0.1,0,0.1,0,0.1c0,0,0,0.1-0.1,0.1c0,0-0.1,0-0.1,0H5c-0.1,0-0.2,0-0.3-0.1
		c-0.1-0.1-0.1-0.1-0.1-0.3v-4.5c0-0.1,0-0.2,0.1-0.3c0.1-0.1,0.2-0.1,0.3-0.1h3.2c0,0,0.1,0,0.1,0c0,0,0,0,0.1,0.1c0,0,0,0.1,0,0.1
		c0,0.1,0,0.1,0,0.2c0,0.1,0,0.1,0,0.2c0,0.1,0,0.1,0,0.1c0,0,0,0.1-0.1,0.1c0,0-0.1,0-0.1,0H5.9v1.3h2c0,0,0.1,0,0.1,0
		C8,15,8,15,8,15c0,0,0,0.1,0,0.1c0,0.1,0,0.1,0,0.2c0,0.1,0,0.1,0,0.2c0,0.1,0,0.1,0,0.1c0,0,0,0.1-0.1,0.1c0,0-0.1,0-0.1,0h-2v1.5
		h2.3c0,0,0.1,0,0.1,0c0,0,0,0,0.1,0.1c0,0,0,0.1,0,0.1C8.4,17.5,8.4,17.6,8.4,17.6z"/>
	<path class="st0" d="M17.2,17.9C17.2,17.9,17.2,18,17.2,17.9c0,0.1-0.1,0.1-0.1,0.1c0,0-0.1,0-0.2,0c-0.1,0-0.2,0-0.3,0
		c-0.1,0-0.2,0-0.3,0c-0.1,0-0.1,0-0.2,0c0,0-0.1,0-0.1-0.1c0,0,0,0,0-0.1v-4.2h0L14,17.9c0,0,0,0.1-0.1,0.1c0,0-0.1,0-0.1,0.1
		c-0.1,0-0.1,0-0.2,0c-0.1,0-0.2,0-0.3,0c-0.1,0-0.2,0-0.3,0c-0.1,0-0.1,0-0.2,0c-0.1,0-0.1,0-0.1-0.1c0,0-0.1,0-0.1-0.1l-1.8-4.2h0
		v4.2c0,0,0,0.1,0,0.1c0,0-0.1,0-0.1,0.1c-0.1,0-0.1,0-0.2,0c-0.1,0-0.2,0-0.3,0c-0.1,0-0.2,0-0.3,0c-0.1,0-0.1,0-0.2,0
		c0,0-0.1,0-0.1-0.1c0,0,0,0,0-0.1v-4.6c0-0.1,0-0.2,0.1-0.3c0.1-0.1,0.2-0.1,0.4-0.1H11c0.2,0,0.3,0,0.4,0c0.1,0,0.2,0.1,0.3,0.1
		c0.1,0,0.1,0.1,0.2,0.2c0.1,0.1,0.1,0.2,0.1,0.3l1.4,3.1h0l1.5-3.1c0-0.1,0.1-0.2,0.1-0.3c0.1-0.1,0.1-0.1,0.2-0.2
		c0.1,0,0.1-0.1,0.2-0.1c0.1,0,0.2,0,0.3,0h0.9c0.1,0,0.2,0,0.2,0c0.1,0,0.1,0,0.2,0.1c0,0,0.1,0.1,0.1,0.1c0,0.1,0,0.1,0,0.2V17.9z
		"/>
	<path class="st0" d="M22.2,13.3c0,0.1,0,0.1,0,0.2c0,0.1,0,0.1,0,0.1c0,0,0,0.1-0.1,0.1c0,0-0.1,0-0.1,0h-2.1v1.4h2
		c0,0,0.1,0,0.1,0c0,0,0,0,0.1,0.1c0,0,0,0.1,0,0.1c0,0.1,0,0.1,0,0.2c0,0.1,0,0.1,0,0.2c0,0.1,0,0.1,0,0.1c0,0,0,0.1-0.1,0.1
		c0,0-0.1,0-0.1,0h-2v1.9c0,0,0,0.1,0,0.1c0,0-0.1,0-0.1,0.1c-0.1,0-0.1,0-0.2,0c-0.1,0-0.2,0-0.3,0c-0.1,0-0.2,0-0.3,0
		c-0.1,0-0.2,0-0.2,0c-0.1,0-0.1,0-0.1-0.1c0,0,0,0,0-0.1v-4.7c0-0.1,0-0.2,0.1-0.3c0.1-0.1,0.2-0.1,0.3-0.1H22c0,0,0.1,0,0.1,0
		c0,0,0,0,0.1,0.1c0,0,0,0.1,0,0.1C22.2,13.1,22.2,13.2,22.2,13.3z"/>
	<path class="st0" d="M25.9,16.1v1.8c0,0,0,0.1,0,0.1c0,0-0.1,0-0.1,0.1c-0.1,0-0.1,0-0.2,0c-0.1,0-0.2,0-0.3,0c-0.1,0-0.2,0-0.3,0
		c-0.1,0-0.2,0-0.2,0c-0.1,0-0.1,0-0.1-0.1c0,0,0,0,0-0.1v-1.8l-1.8-2.8c-0.1-0.1-0.1-0.2-0.1-0.2c0-0.1,0-0.1,0-0.1
		c0,0,0.1,0,0.2-0.1c0.1,0,0.2,0,0.4,0c0.2,0,0.3,0,0.4,0c0.1,0,0.2,0,0.2,0c0.1,0,0.1,0,0.1,0.1c0,0,0,0.1,0.1,0.1l0.7,1.3
		c0.1,0.1,0.1,0.3,0.2,0.4c0.1,0.1,0.1,0.3,0.2,0.4h0c0.1-0.1,0.1-0.3,0.2-0.4c0.1-0.1,0.1-0.3,0.2-0.4l0.7-1.3c0,0,0-0.1,0.1-0.1
		c0,0,0.1,0,0.1-0.1c0.1,0,0.1,0,0.2,0c0.1,0,0.2,0,0.3,0c0.2,0,0.3,0,0.4,0c0.1,0,0.2,0,0.2,0.1c0,0,0,0.1,0,0.1
		c0,0.1-0.1,0.1-0.1,0.2L25.9,16.1z"/>
</g>
<g>
	<path d="M42.3,8.7c0,0.1,0,0.2,0,0.3c0,0.1,0,0.1-0.1,0.2s-0.1,0.1-0.1,0.1s-0.1,0-0.1,0h-3v6c0,0,0,0.1,0,0.1s-0.1,0.1-0.2,0.1
		c-0.1,0-0.2,0-0.3,0s-0.3,0-0.4,0c-0.2,0-0.3,0-0.4,0c-0.1,0-0.2,0-0.3,0c-0.1,0-0.1,0-0.2-0.1s0-0.1,0-0.1V8.5
		c0-0.2,0-0.3,0.2-0.4C37.4,8.1,37.5,8,37.7,8H42c0.1,0,0.2,0,0.2,0.1S42.3,8.4,42.3,8.7z"/>
	<path d="M48.7,14.9c0,0.1,0,0.2,0,0.3c0,0.1,0,0.1-0.1,0.2s-0.1,0.1-0.1,0.1c0,0-0.1,0-0.1,0h-4.6c-0.2,0-0.3,0-0.4-0.1
		c-0.1-0.1-0.2-0.2-0.2-0.4V8.5c0-0.2,0.1-0.3,0.2-0.4C43.6,8.1,43.7,8,43.9,8h4.5c0,0,0.1,0,0.1,0s0.1,0.1,0.1,0.1
		c0,0,0,0.1,0.1,0.2s0,0.2,0,0.3c0,0.1,0,0.2,0,0.3c0,0.1,0,0.1-0.1,0.2c0,0-0.1,0.1-0.1,0.1s-0.1,0-0.1,0h-3.2V11h2.7
		c0,0,0.1,0,0.1,0c0,0,0.1,0.1,0.1,0.1s0,0.1,0.1,0.2c0,0.1,0,0.2,0,0.3c0,0.1,0,0.2,0,0.3c0,0.1,0,0.1-0.1,0.2s-0.1,0.1-0.1,0.1
		c0,0-0.1,0-0.1,0h-2.7v2.1h3.3c0,0,0.1,0,0.1,0c0,0,0.1,0.1,0.1,0.1c0,0,0,0.1,0.1,0.2C48.7,14.7,48.7,14.7,48.7,14.9z"/>
	<path d="M56.5,10.3c0,0.4-0.1,0.8-0.2,1.1s-0.4,0.6-0.7,0.8c-0.3,0.2-0.7,0.4-1.1,0.5c-0.4,0.1-1,0.2-1.6,0.2h-0.8v2.4
		c0,0,0,0.1,0,0.1c0,0-0.1,0.1-0.2,0.1c-0.1,0-0.2,0-0.3,0c-0.1,0-0.3,0-0.4,0c-0.2,0-0.3,0-0.4,0c-0.1,0-0.2,0-0.3,0
		c-0.1,0-0.1,0-0.1-0.1c0,0,0-0.1,0-0.1V8.6c0-0.2,0.1-0.3,0.2-0.4C50.6,8.1,50.8,8,51,8h2.1c0.2,0,0.4,0,0.6,0c0.2,0,0.4,0,0.7,0.1
		s0.5,0.1,0.8,0.2c0.3,0.1,0.5,0.3,0.7,0.5s0.3,0.4,0.4,0.6C56.5,9.7,56.5,10,56.5,10.3z M54.6,10.4c0-0.3-0.1-0.5-0.2-0.6
		c-0.1-0.2-0.2-0.3-0.4-0.4c-0.2-0.1-0.3-0.1-0.5-0.2s-0.4,0-0.6,0h-0.8v2.5H53c0.3,0,0.5,0,0.7-0.1c0.2-0.1,0.4-0.2,0.5-0.3
		c0.1-0.1,0.2-0.3,0.3-0.4C54.6,10.8,54.6,10.6,54.6,10.4z"/>
	<path d="M64.6,14.9c0.1,0.1,0.1,0.2,0.1,0.3c0,0.1,0,0.1-0.1,0.2c-0.1,0-0.1,0.1-0.3,0.1s-0.3,0-0.5,0c-0.2,0-0.4,0-0.6,0
		s-0.2,0-0.3,0c-0.1,0-0.1,0-0.1-0.1c0,0-0.1-0.1-0.1-0.1l-0.6-1.5h-3.4l-0.6,1.5c0,0.1,0,0.1-0.1,0.1c0,0-0.1,0.1-0.1,0.1
		s-0.2,0-0.3,0c-0.1,0-0.3,0-0.5,0c-0.2,0-0.4,0-0.5,0c-0.1,0-0.2,0-0.3-0.1c0,0-0.1-0.1,0-0.2c0-0.1,0-0.2,0.1-0.3l2.8-6.6
		c0-0.1,0.1-0.1,0.1-0.2c0,0,0.1-0.1,0.2-0.1c0.1,0,0.2,0,0.3,0c0.1,0,0.3,0,0.6,0c0.3,0,0.5,0,0.7,0s0.3,0,0.4,0
		c0.1,0,0.2,0.1,0.2,0.1s0.1,0.1,0.1,0.2L64.6,14.9z M60.4,9.4L60.4,9.4l-1.3,3.2h2.6L60.4,9.4z"/>
	<path d="M71.2,14.9c0,0.1,0,0.2,0,0.3s0,0.1-0.1,0.2s-0.1,0.1-0.1,0.1c0,0-0.1,0-0.1,0h-4.6c-0.2,0-0.3,0-0.4-0.1
		c-0.1-0.1-0.2-0.2-0.2-0.4V8.5c0-0.2,0.1-0.3,0.2-0.4C66.1,8.1,66.3,8,66.4,8h4.5c0,0,0.1,0,0.1,0c0,0,0.1,0.1,0.1,0.1
		c0,0,0,0.1,0.1,0.2s0,0.2,0,0.3c0,0.1,0,0.2,0,0.3c0,0.1,0,0.1-0.1,0.2c0,0-0.1,0.1-0.1,0.1c0,0-0.1,0-0.1,0h-3.2V11h2.7
		c0,0,0.1,0,0.1,0s0.1,0.1,0.1,0.1c0,0,0,0.1,0.1,0.2c0,0.1,0,0.2,0,0.3c0,0.1,0,0.2,0,0.3c0,0.1,0,0.1-0.1,0.2c0,0-0.1,0.1-0.1,0.1
		c0,0-0.1,0-0.1,0h-2.7v2.1H71c0,0,0.1,0,0.1,0s0.1,0.1,0.1,0.1c0,0,0,0.1,0.1,0.2C71.2,14.7,71.2,14.7,71.2,14.9z"/>
	<path d="M79.4,13.2c0,0.3,0,0.5-0.1,0.7s-0.2,0.4-0.4,0.6c-0.2,0.2-0.3,0.3-0.6,0.4s-0.5,0.2-0.7,0.3c-0.3,0.1-0.5,0.1-0.8,0.2
		c-0.3,0-0.6,0.1-1,0.1h-2.4c-0.2,0-0.3,0-0.4-0.1c-0.1-0.1-0.2-0.2-0.2-0.4V8.5c0-0.2,0.1-0.3,0.2-0.4C73.1,8.1,73.3,8,73.4,8h2.3
		c0.6,0,1,0,1.4,0.1c0.4,0.1,0.7,0.2,1,0.3c0.3,0.2,0.5,0.4,0.6,0.6c0.1,0.2,0.2,0.5,0.2,0.8c0,0.2,0,0.3-0.1,0.5
		c-0.1,0.2-0.1,0.3-0.2,0.4s-0.2,0.2-0.4,0.3c-0.2,0.1-0.3,0.2-0.5,0.2c0.3,0,0.5,0.1,0.7,0.2c0.2,0.1,0.4,0.2,0.6,0.4
		c0.2,0.2,0.3,0.3,0.4,0.5S79.4,13,79.4,13.2z M77.1,10.1c0-0.1,0-0.3-0.1-0.4c-0.1-0.1-0.1-0.2-0.3-0.3c-0.1-0.1-0.3-0.1-0.4-0.2
		c-0.2,0-0.4-0.1-0.7-0.1h-0.9v1.9h1c0.3,0,0.5,0,0.6-0.1c0.2-0.1,0.3-0.1,0.4-0.2c0.1-0.1,0.2-0.2,0.2-0.3
		C77,10.4,77.1,10.2,77.1,10.1z M77.5,13.3c0-0.2,0-0.3-0.1-0.5s-0.2-0.2-0.3-0.3s-0.3-0.2-0.5-0.2c-0.2,0-0.5-0.1-0.8-0.1h-1.1v2.1
		H76c0.3,0,0.5,0,0.6-0.1c0.2,0,0.3-0.1,0.5-0.2c0.1-0.1,0.2-0.2,0.3-0.3S77.5,13.4,77.5,13.3z"/>
	<path d="M91.5,15.3c0,0,0,0.1,0,0.1s-0.1,0.1-0.2,0.1s-0.2,0-0.3,0s-0.3,0-0.4,0s-0.3,0-0.4,0s-0.2,0-0.3,0c-0.1,0-0.1,0-0.1-0.1
		c0,0,0-0.1,0-0.1v-3.9c0-0.1,0-0.3,0-0.4c0-0.1,0-0.3,0-0.4h0c0,0.1-0.1,0.1-0.1,0.2c-0.1,0.1-0.1,0.1-0.2,0.2
		c-0.1,0.1-0.1,0.2-0.2,0.2c-0.1,0.1-0.1,0.2-0.2,0.2l-3.2,3.8c0,0-0.1,0.1-0.1,0.1c0,0-0.1,0.1-0.2,0.1c-0.1,0-0.1,0-0.2,0
		s-0.2,0-0.4,0c-0.2,0-0.3,0-0.4,0s-0.2,0-0.3,0s-0.1,0-0.1-0.1c0,0,0-0.1,0-0.1v-7c0,0,0-0.1,0-0.1s0.1-0.1,0.2-0.1s0.2,0,0.3,0
		c0.1,0,0.3,0,0.4,0c0.2,0,0.3,0,0.4,0c0.1,0,0.2,0,0.3,0c0.1,0,0.1,0,0.1,0.1s0,0.1,0,0.1v3.9c0,0.1,0,0.3,0,0.4c0,0.1,0,0.3,0,0.4
		h0c0.1-0.1,0.2-0.3,0.3-0.4s0.2-0.3,0.4-0.5l3.2-3.8c0,0,0.1-0.1,0.1-0.1S90,8.1,90.1,8c0.1,0,0.1,0,0.2,0c0.1,0,0.2,0,0.4,0
		c0.2,0,0.3,0,0.4,0c0.1,0,0.2,0,0.3,0s0.1,0,0.1,0.1c0,0,0,0.1,0,0.1V15.3z"/>
	<path d="M100.5,15.3c0,0,0,0.1,0,0.1c0,0-0.1,0.1-0.1,0.1c-0.1,0-0.2,0-0.3,0s-0.3,0-0.4,0c-0.2,0-0.3,0-0.4,0c-0.1,0-0.2,0-0.3,0
		c-0.1,0-0.1,0-0.1-0.1s0-0.1,0-0.1v-6h-1.9c-0.1,0.9-0.3,1.6-0.4,2.3s-0.3,1.2-0.4,1.7c-0.2,0.5-0.3,0.8-0.5,1.1s-0.4,0.5-0.6,0.7
		c-0.2,0.2-0.5,0.3-0.8,0.4s-0.6,0.1-1,0.1c-0.1,0-0.1,0-0.2,0c-0.1,0-0.1,0-0.1-0.1s-0.1-0.1-0.1-0.2c0-0.1,0-0.2,0-0.3
		c0-0.2,0-0.3,0-0.4c0-0.1,0-0.2,0-0.2c0-0.1,0.1-0.1,0.1-0.1c0,0,0.1,0,0.1,0c0.1,0,0.3,0,0.4-0.1c0.1,0,0.3-0.1,0.4-0.3
		c0.1-0.1,0.2-0.3,0.4-0.6c0.1-0.3,0.2-0.6,0.3-1c0.1-0.4,0.2-0.9,0.3-1.5c0.1-0.6,0.2-1.3,0.3-2.1c0-0.2,0.1-0.3,0.2-0.4
		C95.3,8.1,95.4,8,95.6,8h4.4c0.2,0,0.3,0,0.4,0.1c0.1,0.1,0.1,0.2,0.1,0.4V15.3z"/>
	<path d="M109.2,13c0,0.4-0.1,0.7-0.2,1c-0.1,0.3-0.3,0.6-0.6,0.8c-0.3,0.2-0.7,0.4-1.1,0.5c-0.5,0.1-1.1,0.2-1.9,0.2h-2.3
		c-0.1,0-0.2,0-0.2,0c-0.1,0-0.1,0-0.2-0.1c-0.1,0-0.1-0.1-0.1-0.1c0-0.1,0-0.1,0-0.2V8.2c0,0,0-0.1,0-0.1s0.1-0.1,0.2-0.1
		s0.2,0,0.3,0s0.3,0,0.4,0c0.2,0,0.3,0,0.4,0c0.1,0,0.2,0,0.3,0c0.1,0,0.1,0,0.1,0.1s0,0.1,0,0.1v2.5h1.3c0.7,0,1.2,0,1.6,0.1
		c0.4,0.1,0.8,0.2,1,0.4c0.3,0.2,0.5,0.4,0.7,0.7C109.1,12.3,109.2,12.6,109.2,13z M107.3,13.1c0-0.2,0-0.4-0.1-0.5
		c-0.1-0.1-0.2-0.3-0.3-0.4c-0.1-0.1-0.3-0.2-0.5-0.2c-0.2-0.1-0.5-0.1-0.9-0.1h-1.1v2.4h1.1c0.4,0,0.8,0,1-0.1s0.4-0.2,0.5-0.3
		s0.2-0.2,0.3-0.4C107.3,13.4,107.3,13.2,107.3,13.1z"/>
	<path d="M116.6,15.3c0,0,0,0.1,0,0.1s-0.1,0.1-0.1,0.1s-0.2,0-0.3,0s-0.3,0-0.4,0c-0.2,0-0.3,0-0.4,0c-0.1,0-0.2,0-0.3,0
		s-0.1,0-0.2-0.1c0,0,0-0.1,0-0.1v-2.8H114c-0.3,0-0.5,0-0.6,0.1c-0.1,0-0.3,0.1-0.4,0.2c-0.1,0.1-0.2,0.2-0.3,0.4
		c-0.1,0.1-0.2,0.3-0.3,0.5l-0.7,1.6c0,0-0.1,0.1-0.1,0.1c0,0-0.1,0.1-0.2,0.1c-0.1,0-0.2,0-0.3,0c-0.1,0-0.3,0-0.5,0
		c-0.2,0-0.4,0-0.5,0c-0.1,0-0.2,0-0.3,0c-0.1,0-0.1,0-0.1-0.1c0,0,0-0.1,0-0.1c0,0,0-0.1,0-0.1c0-0.1,0.1-0.1,0.1-0.2l0.7-1.5
		c0.1-0.2,0.2-0.4,0.3-0.5c0.1-0.1,0.2-0.3,0.3-0.4s0.2-0.2,0.4-0.3c0.1-0.1,0.3-0.1,0.4-0.2c-0.3-0.1-0.5-0.1-0.8-0.3
		c-0.2-0.1-0.4-0.2-0.6-0.4c-0.2-0.2-0.3-0.3-0.3-0.5c-0.1-0.2-0.1-0.4-0.1-0.7c0-0.3,0.1-0.6,0.2-0.9c0.1-0.3,0.4-0.5,0.6-0.7
		c0.3-0.2,0.6-0.3,1-0.4c0.4-0.1,1-0.2,1.7-0.2h2.2c0.1,0,0.3,0,0.4,0.1c0.1,0.1,0.2,0.2,0.2,0.4V15.3z M114.7,9.2h-0.9
		c-0.4,0-0.7,0-0.9,0.1s-0.4,0.1-0.5,0.2s-0.2,0.2-0.3,0.3c-0.1,0.1-0.1,0.3-0.1,0.4c0,0.2,0,0.3,0.1,0.4s0.2,0.2,0.3,0.3
		c0.1,0.1,0.3,0.2,0.5,0.2c0.2,0.1,0.5,0.1,0.8,0.1h1V9.2z"/>
	<path d="M40.4,20.3c0,0.1,0,0.1,0,0.1s0,0.1,0,0.1s0,0-0.1,0.1c0,0,0,0-0.1,0h-1.4v3.4c0,0,0,0,0,0.1c0,0,0,0-0.1,0s-0.1,0-0.1,0
		c-0.1,0-0.1,0-0.2,0c-0.1,0-0.2,0-0.2,0s-0.1,0-0.1,0c0,0-0.1,0-0.1,0c0,0,0,0,0-0.1v-3.4h-1.4c0,0-0.1,0-0.1,0c0,0,0,0-0.1-0.1
		c0,0,0-0.1,0-0.1c0,0,0-0.1,0-0.2c0-0.1,0-0.1,0-0.1s0-0.1,0-0.1c0,0,0,0,0.1-0.1c0,0,0,0,0.1,0h3.8c0,0,0.1,0,0.1,0
		c0,0,0,0,0.1,0.1c0,0,0,0.1,0,0.1C40.3,20.2,40.4,20.3,40.4,20.3z"/>
	<path d="M45.2,21.9c0,0.1,0,0.2-0.1,0.2c-0.1,0-0.1,0.1-0.2,0.1h-3.2c0,0.2,0,0.4,0.1,0.6c0.1,0.2,0.1,0.3,0.3,0.5
		c0.1,0.1,0.3,0.2,0.5,0.3s0.4,0.1,0.7,0.1c0.2,0,0.4,0,0.6,0c0.2,0,0.3-0.1,0.5-0.1c0.1,0,0.2-0.1,0.3-0.1c0.1,0,0.1,0,0.2,0
		c0,0,0,0,0.1,0c0,0,0,0,0,0c0,0,0,0,0,0.1c0,0,0,0.1,0,0.1c0,0,0,0.1,0,0.1c0,0,0,0.1,0,0.1c0,0,0,0,0,0.1c0,0,0,0,0,0.1
		c0,0-0.1,0-0.2,0.1s-0.2,0.1-0.4,0.1c-0.2,0-0.3,0.1-0.5,0.1c-0.2,0-0.4,0-0.6,0c-0.4,0-0.7,0-1-0.1s-0.5-0.2-0.8-0.4
		c-0.2-0.2-0.4-0.4-0.5-0.7c-0.1-0.3-0.2-0.6-0.2-0.9c0-0.3,0.1-0.6,0.2-0.9c0.1-0.3,0.3-0.5,0.5-0.7c0.2-0.2,0.4-0.3,0.7-0.4
		c0.3-0.1,0.6-0.2,1-0.2c0.4,0,0.7,0,1,0.1c0.3,0.1,0.5,0.2,0.7,0.4c0.2,0.2,0.3,0.4,0.4,0.6s0.1,0.5,0.1,0.7V21.9z M44.4,21.7
		c0-0.4-0.1-0.7-0.3-0.9c-0.2-0.2-0.5-0.3-1-0.3c-0.2,0-0.4,0-0.6,0.1s-0.3,0.2-0.4,0.3c-0.1,0.1-0.2,0.2-0.3,0.4
		c-0.1,0.1-0.1,0.3-0.1,0.5H44.4z"/>
	<path d="M50.1,23.5c0,0,0,0.1,0,0.1c0,0,0,0.1,0,0.1c0,0,0,0,0,0.1c0,0,0,0-0.1,0.1c0,0-0.1,0.1-0.2,0.1c-0.1,0.1-0.2,0.1-0.4,0.1
		c-0.1,0-0.3,0.1-0.4,0.1s-0.3,0-0.5,0c-0.3,0-0.7,0-0.9-0.1c-0.3-0.1-0.5-0.2-0.7-0.4c-0.2-0.2-0.3-0.4-0.4-0.7
		c-0.1-0.3-0.1-0.6-0.1-0.9c0-0.4,0.1-0.7,0.2-1c0.1-0.3,0.3-0.5,0.5-0.7c0.2-0.2,0.4-0.3,0.7-0.4c0.3-0.1,0.6-0.1,0.9-0.1
		c0.2,0,0.3,0,0.4,0c0.1,0,0.3,0.1,0.4,0.1c0.1,0,0.2,0.1,0.3,0.1s0.2,0.1,0.2,0.1c0,0,0.1,0.1,0.1,0.1s0,0,0,0.1c0,0,0,0.1,0,0.1
		s0,0.1,0,0.1c0,0.1,0,0.2,0,0.2c0,0-0.1,0.1-0.1,0.1c-0.1,0-0.1,0-0.2-0.1c-0.1,0-0.2-0.1-0.3-0.2c-0.1-0.1-0.2-0.1-0.4-0.2
		c-0.2,0-0.3-0.1-0.5-0.1c-0.4,0-0.8,0.1-1,0.4c-0.2,0.3-0.3,0.7-0.3,1.2c0,0.3,0,0.5,0.1,0.7s0.1,0.4,0.3,0.5s0.3,0.2,0.4,0.3
		c0.2,0.1,0.4,0.1,0.6,0.1c0.2,0,0.4,0,0.5-0.1c0.2-0.1,0.3-0.1,0.4-0.2c0.1-0.1,0.2-0.1,0.3-0.2c0.1-0.1,0.1-0.1,0.2-0.1
		c0,0,0,0,0.1,0s0,0,0,0.1c0,0,0,0.1,0,0.1C50.1,23.4,50.1,23.4,50.1,23.5z"/>
	<path d="M54.6,20.3c0,0.1,0,0.1,0,0.1s0,0.1,0,0.1s0,0-0.1,0.1c0,0,0,0-0.1,0H53v3.4c0,0,0,0,0,0.1c0,0,0,0-0.1,0s-0.1,0-0.1,0
		c-0.1,0-0.1,0-0.2,0c-0.1,0-0.2,0-0.2,0s-0.1,0-0.1,0c0,0-0.1,0-0.1,0c0,0,0,0,0-0.1v-3.4h-1.4c0,0-0.1,0-0.1,0c0,0,0,0-0.1-0.1
		c0,0,0-0.1,0-0.1c0,0,0-0.1,0-0.2c0-0.1,0-0.1,0-0.1s0-0.1,0-0.1c0,0,0,0,0.1-0.1c0,0,0,0,0.1,0h3.8c0,0,0.1,0,0.1,0
		c0,0,0,0,0.1,0.1c0,0,0,0.1,0,0.1C54.6,20.2,54.6,20.3,54.6,20.3z"/>
	<path d="M59.8,22.1c0,0.3-0.1,0.6-0.2,0.9s-0.3,0.5-0.5,0.7c-0.2,0.2-0.5,0.3-0.8,0.5s-0.7,0.2-1.1,0.2c-0.4,0-0.7,0-1-0.1
		c-0.3-0.1-0.5-0.2-0.7-0.4c-0.2-0.2-0.3-0.4-0.4-0.7c-0.1-0.3-0.1-0.6-0.1-0.9c0-0.3,0.1-0.6,0.2-0.9c0.1-0.3,0.3-0.5,0.5-0.7
		c0.2-0.2,0.5-0.3,0.8-0.5c0.3-0.1,0.7-0.2,1.1-0.2c0.4,0,0.7,0,1,0.1c0.3,0.1,0.5,0.2,0.7,0.4c0.2,0.2,0.3,0.4,0.4,0.7
		C59.8,21.4,59.8,21.7,59.8,22.1z M58.9,22.1c0-0.2,0-0.4-0.1-0.6c0-0.2-0.1-0.4-0.2-0.5s-0.3-0.3-0.5-0.3c-0.2-0.1-0.4-0.1-0.7-0.1
		c-0.3,0-0.5,0-0.7,0.1c-0.2,0.1-0.3,0.2-0.5,0.3s-0.2,0.3-0.3,0.5c-0.1,0.2-0.1,0.4-0.1,0.6c0,0.2,0,0.4,0.1,0.6s0.1,0.4,0.2,0.5
		c0.1,0.1,0.3,0.3,0.5,0.3c0.2,0.1,0.4,0.1,0.7,0.1c0.3,0,0.5,0,0.7-0.1c0.2-0.1,0.3-0.2,0.5-0.3s0.2-0.3,0.3-0.5
		S58.9,22.3,58.9,22.1z"/>
	<path d="M65.1,22.9c0,0.2,0,0.4-0.1,0.6c-0.1,0.2-0.2,0.3-0.4,0.4c-0.2,0.1-0.4,0.2-0.7,0.2c-0.3,0.1-0.6,0.1-1,0.1
		c-0.1,0-0.2,0-0.3,0c-0.1,0-0.2,0-0.3,0c-0.1,0-0.2,0-0.3,0s-0.2,0-0.3,0c-0.1,0-0.2-0.1-0.3-0.1c-0.1-0.1-0.1-0.2-0.1-0.3v-3.4
		c0-0.1,0-0.2,0.1-0.3s0.2-0.1,0.3-0.1c0.1,0,0.2,0,0.3,0s0.2,0,0.3,0c0.1,0,0.2,0,0.3,0s0.2,0,0.4,0c0.3,0,0.6,0,0.9,0.1
		s0.5,0.1,0.6,0.2s0.3,0.2,0.4,0.3c0.1,0.1,0.1,0.3,0.1,0.5c0,0.2-0.1,0.4-0.2,0.6c-0.1,0.2-0.4,0.3-0.6,0.3
		c0.4,0.1,0.6,0.2,0.8,0.4C65,22.5,65.1,22.7,65.1,22.9z M64,21.1c0-0.1,0-0.2-0.1-0.3s-0.1-0.1-0.2-0.2c-0.1-0.1-0.2-0.1-0.4-0.1
		s-0.3,0-0.6,0c-0.2,0-0.3,0-0.5,0c-0.1,0-0.3,0-0.4,0v1.2h0.9c0.4,0,0.6-0.1,0.8-0.2C63.9,21.5,64,21.3,64,21.1z M64.2,23
		c0-0.1,0-0.2-0.1-0.3c0-0.1-0.1-0.2-0.2-0.2c-0.1-0.1-0.2-0.1-0.4-0.1c-0.2,0-0.4,0-0.6,0H62v1.4c0.1,0,0.1,0,0.2,0
		c0.1,0,0.1,0,0.2,0c0.1,0,0.2,0,0.2,0s0.1,0,0.2,0c0.2,0,0.4,0,0.6-0.1c0.2,0,0.3-0.1,0.4-0.1c0.1-0.1,0.2-0.1,0.2-0.2
		C64.2,23.2,64.2,23.1,64.2,23z"/>
	<path d="M70.9,22.1c0,0.3-0.1,0.6-0.2,0.9s-0.3,0.5-0.5,0.7c-0.2,0.2-0.5,0.3-0.8,0.5c-0.3,0.1-0.7,0.2-1.1,0.2c-0.4,0-0.7,0-1-0.1
		s-0.5-0.2-0.7-0.4c-0.2-0.2-0.3-0.4-0.4-0.7c-0.1-0.3-0.1-0.6-0.1-0.9c0-0.3,0.1-0.6,0.2-0.9c0.1-0.3,0.3-0.5,0.5-0.7
		c0.2-0.2,0.5-0.3,0.8-0.5c0.3-0.1,0.7-0.2,1.1-0.2c0.4,0,0.7,0,1,0.1s0.5,0.2,0.7,0.4c0.2,0.2,0.3,0.4,0.4,0.7
		C70.8,21.4,70.9,21.7,70.9,22.1z M70,22.1c0-0.2,0-0.4-0.1-0.6s-0.1-0.4-0.2-0.5c-0.1-0.1-0.3-0.3-0.5-0.3
		c-0.2-0.1-0.4-0.1-0.7-0.1c-0.3,0-0.5,0-0.7,0.1c-0.2,0.1-0.3,0.2-0.5,0.3c-0.1,0.1-0.2,0.3-0.3,0.5C67,21.7,67,21.9,67,22.1
		c0,0.2,0,0.4,0.1,0.6s0.1,0.4,0.2,0.5c0.1,0.1,0.3,0.3,0.5,0.3c0.2,0.1,0.4,0.1,0.7,0.1c0.3,0,0.5,0,0.7-0.1
		c0.2-0.1,0.3-0.2,0.5-0.3c0.1-0.1,0.2-0.3,0.3-0.5S70,22.3,70,22.1z"/>
	<path d="M76.3,21.9c0,0.1,0,0.2-0.1,0.2c-0.1,0-0.1,0.1-0.2,0.1h-3.2c0,0.2,0,0.4,0.1,0.6c0.1,0.2,0.1,0.3,0.3,0.5
		c0.1,0.1,0.3,0.2,0.5,0.3s0.4,0.1,0.7,0.1c0.2,0,0.4,0,0.6,0c0.2,0,0.3-0.1,0.5-0.1c0.1,0,0.2-0.1,0.3-0.1c0.1,0,0.1,0,0.2,0
		c0,0,0,0,0.1,0c0,0,0,0,0,0s0,0,0,0.1c0,0,0,0.1,0,0.1c0,0,0,0.1,0,0.1c0,0,0,0.1,0,0.1c0,0,0,0,0,0.1s0,0,0,0.1c0,0-0.1,0-0.2,0.1
		c-0.1,0-0.2,0.1-0.4,0.1c-0.2,0-0.3,0.1-0.5,0.1c-0.2,0-0.4,0-0.6,0c-0.4,0-0.7,0-1-0.1c-0.3-0.1-0.5-0.2-0.8-0.4
		c-0.2-0.2-0.4-0.4-0.5-0.7c-0.1-0.3-0.2-0.6-0.2-0.9c0-0.3,0.1-0.6,0.2-0.9s0.3-0.5,0.5-0.7c0.2-0.2,0.4-0.3,0.7-0.4
		c0.3-0.1,0.6-0.2,1-0.2c0.4,0,0.7,0,1,0.1c0.3,0.1,0.5,0.2,0.7,0.4c0.2,0.2,0.3,0.4,0.4,0.6s0.1,0.5,0.1,0.7V21.9z M75.4,21.7
		c0-0.4-0.1-0.7-0.3-0.9c-0.2-0.2-0.5-0.3-1-0.3c-0.2,0-0.4,0-0.6,0.1s-0.3,0.2-0.4,0.3s-0.2,0.2-0.3,0.4c-0.1,0.1-0.1,0.3-0.1,0.5
		H75.4z"/>
	<path d="M83.5,23c0,0.2,0,0.4-0.1,0.5c-0.1,0.2-0.2,0.3-0.4,0.4c-0.2,0.1-0.4,0.2-0.7,0.3c-0.3,0.1-0.6,0.1-0.9,0.1
		c-0.2,0-0.4,0-0.5,0c-0.2,0-0.3,0-0.4-0.1c-0.1,0-0.2-0.1-0.3-0.1s-0.2-0.1-0.2-0.1c0,0-0.1-0.1-0.1-0.1c0,0,0,0,0-0.1s0-0.1,0-0.1
		c0,0,0-0.1,0-0.1c0,0,0-0.1,0-0.1c0,0,0-0.1,0-0.1s0,0,0,0c0,0,0,0,0.1,0c0,0,0.1,0,0.2,0.1c0.1,0,0.2,0.1,0.3,0.1
		c0.1,0,0.3,0.1,0.4,0.1c0.2,0,0.4,0.1,0.6,0.1c0.2,0,0.3,0,0.5,0c0.1,0,0.3-0.1,0.4-0.1c0.1-0.1,0.2-0.1,0.2-0.2s0.1-0.2,0.1-0.3
		c0-0.1,0-0.2-0.1-0.3s-0.1-0.2-0.3-0.2c-0.1-0.1-0.3-0.1-0.4-0.1s-0.4,0-0.6,0h-0.5c0,0-0.1,0-0.1,0c0,0,0,0-0.1,0c0,0,0-0.1,0-0.1
		c0,0,0-0.1,0-0.1c0,0,0-0.1,0-0.1c0,0,0-0.1,0-0.1c0,0,0,0,0.1,0c0,0,0,0,0.1,0h0.5c0.2,0,0.4,0,0.6,0c0.2,0,0.3-0.1,0.4-0.1
		c0.1-0.1,0.2-0.1,0.2-0.2c0.1-0.1,0.1-0.2,0.1-0.3c0-0.1,0-0.2-0.1-0.3s-0.1-0.1-0.2-0.2c-0.1,0-0.2-0.1-0.3-0.1
		c-0.1,0-0.3,0-0.4,0c-0.2,0-0.4,0-0.6,0.1s-0.3,0.1-0.4,0.1c-0.1,0-0.2,0.1-0.3,0.1c-0.1,0-0.1,0.1-0.2,0.1c0,0,0,0-0.1,0
		c0,0,0,0,0,0c0,0,0,0,0-0.1c0,0,0-0.1,0-0.1c0-0.1,0-0.2,0-0.2c0,0,0-0.1,0.1-0.1s0.1-0.1,0.2-0.1c0.1,0,0.2-0.1,0.4-0.1
		c0.1,0,0.3-0.1,0.5-0.1c0.2,0,0.3,0,0.5,0c0.3,0,0.5,0,0.7,0.1c0.2,0,0.4,0.1,0.6,0.2c0.2,0.1,0.3,0.2,0.4,0.3s0.1,0.3,0.1,0.5
		c0,0.1,0,0.2-0.1,0.3c0,0.1-0.1,0.2-0.2,0.3c-0.1,0.1-0.2,0.2-0.3,0.2s-0.2,0.1-0.4,0.1l0,0c0.1,0,0.3,0,0.4,0.1
		c0.1,0.1,0.3,0.1,0.4,0.2c0.1,0.1,0.2,0.2,0.3,0.3C83.4,22.7,83.5,22.8,83.5,23z"/>
	<path d="M88.4,24.1C88.4,24.1,88.4,24.1,88.4,24.1c-0.1,0.1-0.1,0.1-0.2,0.1s-0.1,0-0.2,0c-0.1,0-0.2,0-0.2,0s-0.1,0-0.1,0
		c0,0,0,0,0-0.1v-0.4c-0.2,0.2-0.4,0.3-0.7,0.4c-0.3,0.1-0.5,0.2-0.8,0.2c-0.3,0-0.5,0-0.7-0.1c-0.2-0.1-0.4-0.1-0.5-0.2
		s-0.3-0.2-0.3-0.4c-0.1-0.1-0.1-0.3-0.1-0.5c0-0.2,0.1-0.4,0.2-0.6s0.3-0.3,0.5-0.4c0.2-0.1,0.5-0.2,0.8-0.2c0.3-0.1,0.6-0.1,1-0.1
		h0.7v-0.3c0-0.2,0-0.3-0.1-0.4s-0.1-0.2-0.2-0.3c-0.1-0.1-0.2-0.1-0.3-0.2c-0.1,0-0.3-0.1-0.5-0.1c-0.2,0-0.4,0-0.6,0.1
		c-0.2,0-0.3,0.1-0.5,0.1c-0.1,0.1-0.2,0.1-0.3,0.1c-0.1,0-0.2,0.1-0.2,0.1c0,0-0.1,0-0.1,0s0,0-0.1-0.1s0-0.1,0-0.1
		c0,0,0-0.1,0-0.1c0-0.1,0-0.1,0-0.2c0,0,0-0.1,0.1-0.1c0,0,0.1-0.1,0.2-0.1s0.3-0.1,0.4-0.1c0.2,0,0.3-0.1,0.5-0.1
		c0.2,0,0.4,0,0.6,0c0.3,0,0.6,0,0.9,0.1c0.2,0.1,0.4,0.2,0.6,0.3c0.2,0.1,0.3,0.3,0.3,0.5c0.1,0.2,0.1,0.4,0.1,0.6V24.1z
		 M87.5,22.3h-0.8c-0.2,0-0.5,0-0.6,0.1c-0.2,0-0.3,0.1-0.4,0.1c-0.1,0.1-0.2,0.1-0.3,0.2c-0.1,0.1-0.1,0.2-0.1,0.3
		c0,0.2,0.1,0.4,0.2,0.5c0.2,0.1,0.4,0.2,0.7,0.2c0.2,0,0.4,0,0.6-0.1c0.2-0.1,0.4-0.2,0.6-0.4V22.3z"/>
	<path d="M90.1,25.5C90.1,25.5,90.1,25.5,90.1,25.5C90.1,25.6,90,25.6,90.1,25.5c-0.1,0.1-0.1,0.1-0.2,0.1c0,0-0.1,0-0.2,0
		c-0.1,0-0.1,0-0.2,0s-0.1,0-0.1,0s-0.1,0-0.1,0c0,0,0,0,0-0.1v-1.8c0-0.1,0-0.1,0-0.1s0.1,0,0.2,0h0.3c0.1-0.1,0.3-0.3,0.4-0.5
		s0.2-0.4,0.3-0.6c0.1-0.3,0.2-0.6,0.3-0.9c0.1-0.4,0.2-0.8,0.2-1.3c0,0,0-0.1,0-0.1c0,0,0-0.1,0.1-0.1c0,0,0.1,0,0.1,0
		c0,0,0.1,0,0.1,0H94c0.1,0,0.2,0,0.2,0.1c0,0,0.1,0.1,0.1,0.2v3.3H95c0.1,0,0.1,0,0.2,0s0,0.1,0,0.1v1.8c0,0,0,0,0,0.1
		c0,0,0,0-0.1,0s-0.1,0-0.1,0c-0.1,0-0.1,0-0.2,0c-0.1,0-0.1,0-0.2,0c0,0-0.1,0-0.1,0s-0.1,0-0.1,0c0,0,0,0,0-0.1v-1.3h-4.3V25.5z
		 M93.4,20.6h-1.5c-0.1,0.5-0.2,0.9-0.2,1.2c-0.1,0.3-0.2,0.6-0.3,0.8c-0.1,0.2-0.2,0.4-0.3,0.6c-0.1,0.1-0.2,0.3-0.3,0.4h2.6V20.6z
		"/>
	<path d="M99.8,24.1C99.8,24.1,99.8,24.1,99.8,24.1c-0.1,0.1-0.1,0.1-0.2,0.1s-0.1,0-0.2,0c-0.1,0-0.2,0-0.2,0s-0.1,0-0.1,0
		c0,0,0,0,0-0.1v-0.4c-0.2,0.2-0.4,0.3-0.7,0.4c-0.3,0.1-0.5,0.2-0.8,0.2c-0.3,0-0.5,0-0.7-0.1c-0.2-0.1-0.4-0.1-0.5-0.2
		S96,23.7,96,23.6c-0.1-0.1-0.1-0.3-0.1-0.5c0-0.2,0.1-0.4,0.2-0.6s0.3-0.3,0.5-0.4c0.2-0.1,0.5-0.2,0.8-0.2c0.3-0.1,0.6-0.1,1-0.1
		h0.7v-0.3c0-0.2,0-0.3-0.1-0.4s-0.1-0.2-0.2-0.3c-0.1-0.1-0.2-0.1-0.3-0.2c-0.1,0-0.3-0.1-0.5-0.1c-0.2,0-0.4,0-0.6,0.1
		c-0.2,0-0.3,0.1-0.5,0.1c-0.1,0.1-0.2,0.1-0.3,0.1c-0.1,0-0.2,0.1-0.2,0.1c0,0-0.1,0-0.1,0s0,0-0.1-0.1s0-0.1,0-0.1
		c0,0,0-0.1,0-0.1c0-0.1,0-0.1,0-0.2c0,0,0-0.1,0.1-0.1c0,0,0.1-0.1,0.2-0.1s0.3-0.1,0.4-0.1c0.2,0,0.3-0.1,0.5-0.1
		c0.2,0,0.4,0,0.6,0c0.3,0,0.6,0,0.9,0.1c0.2,0.1,0.4,0.2,0.6,0.3c0.2,0.1,0.3,0.3,0.3,0.5c0.1,0.2,0.1,0.4,0.1,0.6V24.1z
		 M98.9,22.3h-0.8c-0.2,0-0.5,0-0.6,0.1c-0.2,0-0.3,0.1-0.4,0.1c-0.1,0.1-0.2,0.1-0.3,0.2c-0.1,0.1-0.1,0.2-0.1,0.3
		c0,0.2,0.1,0.4,0.2,0.5c0.2,0.1,0.4,0.2,0.7,0.2c0.2,0,0.4,0,0.6-0.1c0.2-0.1,0.4-0.2,0.6-0.4V22.3z"/>
	<path d="M105.6,24.1C105.6,24.1,105.6,24.1,105.6,24.1c0,0.1-0.1,0.1-0.1,0.1s-0.1,0-0.1,0c-0.1,0-0.1,0-0.2,0c-0.1,0-0.2,0-0.2,0
		c-0.1,0-0.1,0-0.1,0c0,0-0.1,0-0.1,0c0,0,0,0,0-0.1v-1.7h-2.5v1.7c0,0,0,0,0,0.1c0,0,0,0-0.1,0s-0.1,0-0.1,0c-0.1,0-0.1,0-0.2,0
		c-0.1,0-0.2,0-0.2,0c-0.1,0-0.1,0-0.1,0s-0.1,0-0.1,0c0,0,0,0,0-0.1v-3.9c0,0,0,0,0-0.1c0,0,0,0,0.1,0c0,0,0.1,0,0.1,0
		c0.1,0,0.1,0,0.2,0c0.1,0,0.2,0,0.2,0c0.1,0,0.1,0,0.1,0c0,0,0.1,0,0.1,0c0,0,0,0,0,0.1v1.6h2.5v-1.6c0,0,0,0,0-0.1c0,0,0,0,0.1,0
		c0,0,0.1,0,0.1,0c0.1,0,0.1,0,0.2,0c0.1,0,0.2,0,0.2,0c0.1,0,0.1,0,0.1,0c0,0,0.1,0,0.1,0c0,0,0,0,0,0.1V24.1z"/>
	<path d="M111.6,24.1C111.6,24.1,111.6,24.1,111.6,24.1C111.5,24.2,111.5,24.2,111.6,24.1c-0.1,0.1-0.2,0.1-0.2,0.1s-0.1,0-0.2,0
		c-0.1,0-0.2,0-0.2,0c-0.1,0-0.1,0-0.1,0c0,0-0.1,0-0.1,0c0,0,0,0,0-0.1v-2.3c0-0.1,0-0.2,0-0.3c0-0.1,0-0.2,0-0.3
		c-0.1,0.1-0.2,0.2-0.3,0.3c-0.1,0.1-0.2,0.2-0.3,0.3l-2,2.3c0,0,0,0-0.1,0.1s0,0-0.1,0c0,0-0.1,0-0.1,0c0,0-0.1,0-0.2,0
		c-0.1,0-0.1,0-0.2,0s-0.1,0-0.1,0c0,0-0.1,0-0.1,0s0,0,0-0.1v-4c0,0,0,0,0-0.1s0,0,0.1,0s0.1,0,0.1,0c0.1,0,0.1,0,0.2,0
		c0.2,0,0.3,0,0.4,0c0.1,0,0.1,0.1,0.1,0.1v2.3c0,0.1,0,0.2,0,0.3c0,0.1,0,0.2,0,0.3c0.1-0.1,0.2-0.2,0.2-0.3
		c0.1-0.1,0.2-0.2,0.3-0.3l2.1-2.3c0,0,0,0,0.1-0.1c0,0,0.1,0,0.1,0c0,0,0.1,0,0.1,0c0,0,0.1,0,0.2,0c0.1,0,0.1,0,0.2,0
		c0.1,0,0.1,0,0.1,0c0,0,0.1,0,0.1,0s0,0,0,0.1V24.1z"/>
	<path d="M117.3,21.9c0,0.1,0,0.2-0.1,0.2c-0.1,0-0.1,0.1-0.2,0.1h-3.2c0,0.2,0,0.4,0.1,0.6c0.1,0.2,0.1,0.3,0.3,0.5
		c0.1,0.1,0.3,0.2,0.5,0.3s0.4,0.1,0.7,0.1c0.2,0,0.4,0,0.6,0c0.2,0,0.3-0.1,0.5-0.1c0.1,0,0.2-0.1,0.3-0.1c0.1,0,0.1,0,0.2,0
		c0,0,0,0,0.1,0c0,0,0,0,0,0s0,0,0,0.1c0,0,0,0.1,0,0.1c0,0,0,0.1,0,0.1c0,0,0,0.1,0,0.1c0,0,0,0,0,0.1s0,0,0,0.1c0,0-0.1,0-0.2,0.1
		c-0.1,0-0.2,0.1-0.4,0.1c-0.2,0-0.3,0.1-0.5,0.1c-0.2,0-0.4,0-0.6,0c-0.4,0-0.7,0-1-0.1c-0.3-0.1-0.5-0.2-0.8-0.4
		c-0.2-0.2-0.4-0.4-0.5-0.7c-0.1-0.3-0.2-0.6-0.2-0.9c0-0.3,0.1-0.6,0.2-0.9s0.3-0.5,0.5-0.7c0.2-0.2,0.4-0.3,0.7-0.4
		c0.3-0.1,0.6-0.2,1-0.2c0.4,0,0.7,0,1,0.1c0.3,0.1,0.5,0.2,0.7,0.4c0.2,0.2,0.3,0.4,0.4,0.6s0.1,0.5,0.1,0.7V21.9z M116.4,21.7
		c0-0.4-0.1-0.7-0.3-0.9c-0.2-0.2-0.5-0.3-1-0.3c-0.2,0-0.4,0-0.6,0.1s-0.3,0.2-0.4,0.3s-0.2,0.2-0.3,0.4c-0.1,0.1-0.1,0.3-0.1,0.5
		H116.4z"/>
</g>
</svg>
